<svg width="53" height="53" viewBox="0 0 53 53" fill="none" xmlns="http://www.w3.org/2000/svg">
<path opacity="0.1" fill-rule="evenodd" clip-rule="evenodd" d="M26.4677 51.5019C40.1373 51.5019 51.2187 40.4205 51.2187 26.7509C51.2187 13.0814 40.1373 2 26.4677 2C12.7982 2 1.7168 13.0814 1.7168 26.7509C1.7168 40.4205 12.7982 51.5019 26.4677 51.5019Z" stroke="white" stroke-width="2.12151"/>
<path d="M28.7211 20.4157H30.9959C31.2052 20.4157 31.375 20.2557 31.375 20.0585V17.9149C31.375 17.7177 31.2052 17.5577 30.9959 17.5577H28.7211C26.422 17.5577 24.5506 19.3204 24.5506 21.4875V23.9883H21.8967C21.6874 23.9883 21.5176 24.1484 21.5176 24.3456V26.4891C21.5176 26.6864 21.6874 26.8464 21.8967 26.8464H24.5506V34.3488C24.5506 34.5461 24.7205 34.7061 24.9298 34.7061H27.2046C27.4138 34.7061 27.5837 34.5461 27.5837 34.3488V26.8464H30.2376C30.4006 26.8464 30.5455 26.7478 30.5978 26.602L31.3561 24.4585C31.3947 24.3499 31.375 24.2298 31.3037 24.1362C31.2317 24.0434 31.118 23.9883 30.9959 23.9883H27.5837V21.4875C27.5837 20.8966 28.094 20.4157 28.7211 20.4157Z" fill="white"/>
</svg>
