<svg width="113" height="113" viewBox="0 0 113 113" fill="none" xmlns="http://www.w3.org/2000/svg">
<g filter="url(#filter0_d_4822_191)">
<rect x="30" y="28" width="53" height="53" rx="19" fill="#FFF8E7"/>
</g>
<g clip-path="url(#clip0_4822_191)">
<path d="M43.2529 49.0056C42.0105 49.0056 41.0034 50.0128 41.0034 51.2551V61.7526C41.0034 62.995 42.0105 64.0021 43.2529 64.0021C44.4952 64.0021 45.5024 62.995 45.5024 61.7526V51.2551C45.5024 50.0128 44.4952 49.0056 43.2529 49.0056Z" fill="#4CAF50"/>
<path d="M68.747 49.0056C67.5047 49.0056 66.4976 50.0128 66.4976 51.2551V61.7526C66.4976 62.995 67.5047 64.0021 68.747 64.0021C69.9894 64.0021 70.9965 62.995 70.9965 61.7526V51.2551C70.9965 50.0128 69.9894 49.0056 68.747 49.0056Z" fill="#4CAF50"/>
<path d="M64.2479 49.0056H47.7518C47.3377 49.0056 47.002 49.3414 47.002 49.7555V61.7526C47.0016 63.5345 48.2554 65.0704 50.0013 65.4268V70.7505C50.0013 71.9929 51.0084 73 52.2507 73C53.4931 73 54.5002 71.9929 54.5002 70.7505V65.5017H57.4995V70.7505C57.4995 71.9929 58.5067 73 59.749 73C60.9914 73 61.9985 71.9929 61.9985 70.7505V65.4268C63.7444 65.0704 64.9982 63.5345 64.9978 61.7526V49.7555C64.9977 49.3414 64.662 49.0056 64.2479 49.0056Z" fill="#4CAF50"/>
<path d="M61.4512 40.1157L63.2792 38.2892C63.5771 38.0014 63.5853 37.5268 63.2977 37.2289C63.0099 36.931 62.5353 36.9228 62.2374 37.2105C62.2311 37.2165 62.225 37.2226 62.219 37.2289L60.0895 39.3584C57.4814 38.2255 54.52 38.2255 51.9119 39.3584L49.7824 37.2274C49.4846 36.9397 49.0099 36.948 48.7221 37.2458C48.4415 37.5364 48.4415 37.9971 48.7221 38.2876L50.5487 40.1157C48.3219 41.5891 46.9883 44.086 47.0021 46.7561C47.0021 47.1702 47.3378 47.506 47.7519 47.506H64.2481C64.6622 47.506 64.9979 47.1702 64.9979 46.7561C65.0116 44.0861 63.678 41.5891 61.4512 40.1157Z" fill="#4CAF50"/>
<path d="M52.2508 44.5067C52.665 44.5067 53.0007 44.171 53.0007 43.7569C53.0007 43.3427 52.665 43.007 52.2508 43.007C51.8367 43.007 51.501 43.3427 51.501 43.7569C51.501 44.171 51.8367 44.5067 52.2508 44.5067Z" fill="#FAFAFA"/>
<path d="M59.7489 44.5067C60.163 44.5067 60.4987 44.171 60.4987 43.7569C60.4987 43.3427 60.163 43.007 59.7489 43.007C59.3347 43.007 58.999 43.3427 58.999 43.7569C58.999 44.171 59.3347 44.5067 59.7489 44.5067Z" fill="#FAFAFA"/>
</g>
<defs>
<filter id="filter0_d_4822_191" x="0" y="0" width="113" height="113" filterUnits="userSpaceOnUse" color-interpolation-filters="sRGB">
<feFlood flood-opacity="0" result="BackgroundImageFix"/>
<feColorMatrix in="SourceAlpha" type="matrix" values="0 0 0 0 0 0 0 0 0 0 0 0 0 0 0 0 0 0 127 0" result="hardAlpha"/>
<feOffset dy="2"/>
<feGaussianBlur stdDeviation="15"/>
<feComposite in2="hardAlpha" operator="out"/>
<feColorMatrix type="matrix" values="0 0 0 0 0 0 0 0 0 0 0 0 0 0 0 0 0 0 0.05 0"/>
<feBlend mode="normal" in2="BackgroundImageFix" result="effect1_dropShadow_4822_191"/>
<feBlend mode="normal" in="SourceGraphic" in2="effect1_dropShadow_4822_191" result="shape"/>
</filter>
<clipPath id="clip0_4822_191">
<rect width="36" height="36" fill="white" transform="translate(38 37)"/>
</clipPath>
</defs>
</svg>
