<svg width="43" height="43" viewBox="0 0 43 43" fill="none" xmlns="http://www.w3.org/2000/svg">
<path d="M33.5831 32.8142C32.9498 32.1731 31.9165 32.1705 31.2728 32.8168C30.6369 33.4514 30.6369 34.4847 31.2728 35.1297L34.1356 37.9938C34.7714 38.6284 35.8021 38.6179 36.4432 37.9886C37.0843 37.354 37.0921 36.3168 36.4511 35.6796L33.5831 32.8142Z" fill="white"/>
<path d="M41.0246 26.0633L37.1103 25.0157C36.2373 24.7747 35.3421 25.292 35.1076 26.1715C34.873 27.0393 35.3929 27.9358 36.266 28.1756L40.1777 29.2232C41.0455 29.4564 41.9341 28.9339 42.1726 28.0648C42.4124 27.1944 41.8977 26.294 41.0246 26.0633Z" fill="white"/>
<path d="M35.1075 18.4992C35.3394 19.367 36.2346 19.8843 37.1128 19.655L41.0245 18.6087C41.8923 18.3741 42.3992 17.4815 42.1751 16.6085C41.9431 15.7342 41.0506 15.2117 40.1775 15.4475L36.2658 16.4978C35.3902 16.7245 34.8716 17.621 35.1075 18.4992Z" fill="white"/>
<path d="M33.5855 11.8538L36.4483 8.99235C37.0842 8.35517 37.0763 7.32708 36.4457 6.68338C35.8098 6.04229 34.7713 6.03708 34.138 6.67817L31.2727 9.54353C30.629 10.1768 30.6263 11.2127 31.27 11.8564C31.9059 12.491 32.9418 12.4897 33.5855 11.8538Z" fill="white"/>
<path d="M24.6273 8.02008C25.4951 8.25332 26.389 7.73341 26.6301 6.86038L27.679 2.94999C27.9109 2.08087 27.3884 1.1935 26.5232 0.952443C25.6502 0.715292 24.7498 1.23129 24.5205 2.10172L23.4715 6.01732C23.2305 6.88905 23.7478 7.78423 24.6273 8.02008Z" fill="white"/>
<path d="M15.7159 21.9392L10.7657 27.4289V29.6401H19.8608V27.3898H14.2057L17.8268 23.155C18.0275 22.9217 18.232 22.6611 18.4405 22.3718C18.649 22.0826 18.8353 21.775 19.0008 21.4506C19.1663 21.1261 19.3005 20.7847 19.4087 20.429C19.5181 20.0733 19.5715 19.698 19.5715 19.3097C19.5715 17.9663 19.1311 16.9069 18.2503 16.1316C17.372 15.3563 16.0899 14.968 14.3998 14.968C13.7249 14.968 13.046 15.0345 12.3619 15.1674C11.6778 15.3003 11.0484 15.4931 10.479 15.7459L11.2582 17.8581C11.6804 17.6692 12.1521 17.5194 12.6707 17.4047C13.1893 17.2926 13.6884 17.234 14.1692 17.234C15.0188 17.234 15.6729 17.4373 16.1289 17.8425C16.5876 18.2503 16.8156 18.7833 16.8156 19.4439C16.8156 19.9104 16.7062 20.3482 16.4847 20.7535C16.2619 21.1626 16.0078 21.5548 15.7159 21.9392Z" fill="white"/>
<path d="M29.9672 24.1386V15.2024H27.094L21.332 24.1386V26.0658H27.5318V29.6387H29.9672V26.0658H31.3393V24.1386H29.9672ZM27.61 24.1386H23.5993L27.61 17.7172V24.1386Z" fill="white"/>
<path d="M8.81631 34.3088C5.61998 31.1099 3.85568 26.8581 3.85568 22.3366C3.85568 17.8112 5.61998 13.5581 8.81631 10.3591C10.2744 8.90234 11.9384 7.75437 13.7743 6.92174L14.2734 9.51477C14.3855 10.0985 14.8441 10.2575 15.2937 9.86789L21.5287 4.46943C21.9795 4.07983 21.887 3.60162 21.3254 3.40746L13.5333 0.708888C12.9704 0.513434 12.6042 0.832676 12.7163 1.41513L13.1815 3.84137C10.7396 4.8421 8.53095 6.27804 6.63243 8.17525C2.85104 11.9566 0.768799 16.985 0.768799 22.3366C0.768799 27.6842 2.85104 32.7126 6.63243 36.4927C10.4803 40.3406 15.6286 42.3485 20.8263 42.3485C24.1829 42.3485 27.5604 41.5094 30.6173 39.7868L29.1006 37.096C22.5099 40.8109 14.1705 39.663 8.81631 34.3088Z" fill="white"/>
</svg>
