<svg width="45" height="44" viewBox="0 0 45 44" fill="none" xmlns="http://www.w3.org/2000/svg">
<g filter="url(#filter0_f_5603_2366)">
<path d="M31.5143 24.25V29.875C31.5143 30.4962 30.9961 31 30.3571 31H24.5714C23.9325 31 23.4143 30.4962 23.4143 29.875V24.25C23.4143 23.6288 23.9325 23.125 24.5714 23.125H30.3571C30.9961 23.125 31.5143 23.6288 31.5143 24.25ZM17.6286 22C15.0724 22 13 24.0148 13 26.5C13 28.9852 15.0724 31 17.6286 31C20.1848 31 22.2571 28.9852 22.2571 26.5C22.2571 24.0148 20.1848 22 17.6286 22ZM30.3221 20.875C31.2384 20.875 31.8112 19.9373 31.353 19.1874L27.9167 13.5624C27.4585 12.8125 26.3129 12.8125 25.8548 13.5624L22.4184 19.1874C21.9603 19.9373 22.533 20.875 23.4494 20.875H30.3221Z" fill="#F7B502"/>
</g>
<path d="M31.5143 24.25V29.875C31.5143 30.4962 30.9961 31 30.3571 31H24.5714C23.9325 31 23.4143 30.4962 23.4143 29.875V24.25C23.4143 23.6288 23.9325 23.125 24.5714 23.125H30.3571C30.9961 23.125 31.5143 23.6288 31.5143 24.25ZM17.6286 22C15.0724 22 13 24.0148 13 26.5C13 28.9852 15.0724 31 17.6286 31C20.1848 31 22.2571 28.9852 22.2571 26.5C22.2571 24.0148 20.1848 22 17.6286 22ZM30.3221 20.875C31.2384 20.875 31.8112 19.9373 31.353 19.1874L27.9167 13.5624C27.4585 12.8125 26.3129 12.8125 25.8548 13.5624L22.4184 19.1874C21.9603 19.9373 22.533 20.875 23.4494 20.875H30.3221Z" fill="#F7B502"/>
<defs>
<filter id="filter0_f_5603_2366" x="0" y="0" width="44.5146" height="44" filterUnits="userSpaceOnUse" color-interpolation-filters="sRGB">
<feFlood flood-opacity="0" result="BackgroundImageFix"/>
<feBlend mode="normal" in="SourceGraphic" in2="BackgroundImageFix" result="shape"/>
<feGaussianBlur stdDeviation="6.5" result="effect1_foregroundBlur_5603_2366"/>
</filter>
</defs>
</svg>
