<svg width="967" height="1113" viewBox="0 0 967 1113" fill="none" xmlns="http://www.w3.org/2000/svg">
<g clip-path="url(#clip0_4849_2687)">
<rect width="967" height="1113" fill="url(#paint0_linear_4849_2687)"/>
<g filter="url(#filter0_f_4849_2687)">
<path fill-rule="evenodd" clip-rule="evenodd" d="M-48.0918 922.79C21.1448 813.947 176.197 896.994 301.936 925.808C417.352 952.256 568.673 952.381 589.603 1068.92C613.198 1200.3 505.399 1317.02 380.791 1364.88C274.109 1405.85 168.04 1343.42 88.4666 1261.39C-5.22056 1164.82 -120.308 1036.32 -48.0918 922.79Z" fill="url(#paint1_linear_4849_2687)"/>
</g>
<g filter="url(#filter1_f_4849_2687)">
<path d="M1039 227.372C1039 363.951 911.288 422 775.881 422C640.473 422 524.891 302.606 524.891 166.027C524.891 29.4484 606.351 -121 741.758 -121C817.642 -121 761.492 82.2318 806.464 136.841C841.741 179.677 1039 167.334 1039 227.372Z" fill="url(#paint2_linear_4849_2687)"/>
</g>
</g>
<defs>
<filter id="filter0_f_4849_2687" x="-270.78" y="668.314" width="1063.65" height="909.488" filterUnits="userSpaceOnUse" color-interpolation-filters="sRGB">
<feFlood flood-opacity="0" result="BackgroundImageFix"/>
<feBlend mode="normal" in="SourceGraphic" in2="BackgroundImageFix" result="shape"/>
<feGaussianBlur stdDeviation="100" result="effect1_foregroundBlur_4849_2687"/>
</filter>
<filter id="filter1_f_4849_2687" x="324.891" y="-321" width="914.113" height="943" filterUnits="userSpaceOnUse" color-interpolation-filters="sRGB">
<feFlood flood-opacity="0" result="BackgroundImageFix"/>
<feBlend mode="normal" in="SourceGraphic" in2="BackgroundImageFix" result="shape"/>
<feGaussianBlur stdDeviation="100" result="effect1_foregroundBlur_4849_2687"/>
</filter>
<linearGradient id="paint0_linear_4849_2687" x1="483.5" y1="0" x2="483.5" y2="1113" gradientUnits="userSpaceOnUse">
<stop stop-color="#FFF7E2"/>
<stop offset="0.439044" stop-color="#F3E9CC"/>
<stop offset="1" stop-color="#F8E8BD"/>
</linearGradient>
<linearGradient id="paint1_linear_4849_2687" x1="95.928" y1="915.114" x2="515.946" y2="1034.22" gradientUnits="userSpaceOnUse">
<stop stop-color="#F5DD9A"/>
<stop offset="1" stop-color="#C5A246" stop-opacity="0.59"/>
</linearGradient>
<linearGradient id="paint2_linear_4849_2687" x1="781.947" y1="-121" x2="914.21" y2="330.235" gradientUnits="userSpaceOnUse">
<stop stop-color="#F7B502" stop-opacity="0.1"/>
<stop offset="1" stop-color="#F7B502"/>
</linearGradient>
<clipPath id="clip0_4849_2687">
<rect width="967" height="1113" fill="white"/>
</clipPath>
</defs>
</svg>
