<svg width="113" height="113" viewBox="0 0 113 113" fill="none" xmlns="http://www.w3.org/2000/svg">
<g filter="url(#filter0_d_4822_195)">
<rect x="30" y="28" width="53" height="53" rx="19" fill="#F8FFEB"/>
</g>
<g clip-path="url(#clip0_4822_195)">
<path d="M63.0039 54.625C63.0039 51.9356 64.552 49.6133 66.8024 48.4835C64.7935 46.602 62.2123 46.5 61.7537 46.5C60.5346 46.5 59.6646 46.8302 58.824 47.1494C58.0097 47.4589 57.2405 47.7506 56.1276 47.7506C55.0147 47.7506 54.2455 47.4589 53.4311 47.1494C52.5905 46.8302 51.7206 46.5 50.5015 46.5C49.7335 46.5 43 46.7454 43 55.2506C43 62.2056 47.7464 69 50.5015 69C52.1882 69 53.1582 68.6057 54.0147 68.2578C54.6838 67.9862 55.2625 67.7512 56.1276 67.7512C56.9926 67.7512 57.5713 67.9862 58.2404 68.2584C59.0969 68.6057 60.0669 69 61.7531 69C63.6832 69 66.4318 65.6612 68 61.2728C65.0396 60.5059 63.0039 57.8246 63.0039 54.625Z" fill="#1A1A1A"/>
<path d="M55.5028 46.5C59.1649 45.75 61.7898 42.7314 61.7533 39C58.0912 39.75 55.4663 42.7686 55.5028 46.5Z" fill="#1A1A1A"/>
<path opacity="0.1" d="M50.5015 46.8125C51.7206 46.8125 52.5905 47.1427 53.4311 47.4619C54.2455 47.7714 55.0147 48.0631 56.1276 48.0631C57.2405 48.0631 58.0097 47.7714 58.824 47.4619C59.6646 47.1427 60.5346 46.8125 61.7537 46.8125C62.1957 46.8125 64.6059 46.9236 66.5788 48.6156C66.6548 48.5737 66.7247 48.5225 66.8024 48.4835C64.7935 46.602 62.2123 46.5 61.7537 46.5C60.5346 46.5 59.6646 46.8302 58.824 47.1494C58.0097 47.4589 57.2405 47.7506 56.1276 47.7506C55.0147 47.7506 54.2455 47.4589 53.4311 47.1494C52.5905 46.8302 51.7206 46.5 50.5015 46.5C49.7335 46.5 43 46.7454 43 55.2506C43 55.308 43.0065 55.3649 43.0071 55.4222C43.0852 47.063 49.738 46.8125 50.5015 46.8125Z" fill="white"/>
<path opacity="0.2" d="M61.7531 68.6875C60.0669 68.6875 59.0969 68.2932 58.2404 67.9459C57.5713 67.6737 56.9926 67.4387 56.1276 67.4387C55.2625 67.4387 54.6838 67.6737 54.0147 67.9453C53.1582 68.2932 52.1882 68.6875 50.5015 68.6875C47.7692 68.6875 43.0843 62.0042 43.0071 55.1097C43.0066 55.1591 43 55.2006 43 55.2506C43 62.2056 47.7464 69 50.5015 69C52.1882 69 53.1582 68.6057 54.0147 68.2578C54.6838 67.9862 55.2625 67.7512 56.1276 67.7512C56.9926 67.7512 57.5713 67.9862 58.2404 68.2584C59.0969 68.6057 60.0669 69 61.7531 69C63.6832 69 66.4318 65.6612 68 61.2728C67.9637 61.2634 67.9309 61.246 67.8948 61.236C66.3054 65.4863 63.6422 68.6875 61.7531 68.6875Z" fill="black"/>
<path opacity="0.2" d="M61.7243 39.5527C61.4663 42.9667 58.9358 45.4702 55.5066 46.1836C55.5032 46.2918 55.5017 46.3905 55.5028 46.5C59.0554 45.7724 61.6322 42.903 61.7497 39.3259C61.7388 39.3843 61.7429 39.4828 61.7243 39.5527Z" fill="black"/>
<path opacity="0.1" d="M55.5066 46.1678C55.5211 46.0863 55.5392 45.8597 55.5571 45.7227C55.5701 45.5505 55.5888 45.3812 55.6131 45.2149C56.0699 42.0828 58.4923 40.0035 61.7497 39.3259C61.7531 39.2177 61.7543 39.1095 61.7533 39C58.1995 39.7278 55.6225 42.5889 55.5066 46.1678Z" fill="white"/>
<path d="M63.0039 54.625C63.0039 51.9356 64.552 49.6133 66.8024 48.4835C64.7935 46.602 62.2123 46.5 61.7537 46.5C60.5346 46.5 59.6646 46.8302 58.824 47.1494C58.0097 47.4589 57.2405 47.7506 56.1276 47.7506C55.0147 47.7506 54.2455 47.4589 53.4311 47.1494C52.5905 46.8302 51.7206 46.5 50.5015 46.5C49.7335 46.5 43 46.7454 43 55.2506C43 62.2056 47.7464 69 50.5015 69C52.1882 69 53.1582 68.6057 54.0147 68.2578C54.6838 67.9862 55.2625 67.7512 56.1276 67.7512C56.9926 67.7512 57.5713 67.9862 58.2404 68.2584C59.0969 68.6057 60.0669 69 61.7531 69C63.6832 69 66.4318 65.6612 68 61.2728C65.0396 60.5059 63.0039 57.8246 63.0039 54.625ZM61.7533 39C58.0912 39.75 55.4663 42.7686 55.5028 46.5C59.1649 45.75 61.7898 42.7314 61.7533 39Z" fill="url(#paint0_linear_4822_195)"/>
</g>
<defs>
<filter id="filter0_d_4822_195" x="0" y="0" width="113" height="113" filterUnits="userSpaceOnUse" color-interpolation-filters="sRGB">
<feFlood flood-opacity="0" result="BackgroundImageFix"/>
<feColorMatrix in="SourceAlpha" type="matrix" values="0 0 0 0 0 0 0 0 0 0 0 0 0 0 0 0 0 0 127 0" result="hardAlpha"/>
<feOffset dy="2"/>
<feGaussianBlur stdDeviation="15"/>
<feComposite in2="hardAlpha" operator="out"/>
<feColorMatrix type="matrix" values="0 0 0 0 0 0 0 0 0 0 0 0 0 0 0 0 0 0 0.05 0"/>
<feBlend mode="normal" in2="BackgroundImageFix" result="effect1_dropShadow_4822_195"/>
<feBlend mode="normal" in="SourceGraphic" in2="effect1_dropShadow_4822_195" result="shape"/>
</filter>
<linearGradient id="paint0_linear_4822_195" x1="44.75" y1="48.8025" x2="68.71" y2="59.975" gradientUnits="userSpaceOnUse">
<stop stop-color="white" stop-opacity="0.2"/>
<stop offset="1" stop-color="white" stop-opacity="0"/>
</linearGradient>
<clipPath id="clip0_4822_195">
<rect width="30" height="30" fill="white" transform="translate(41 39)"/>
</clipPath>
</defs>
</svg>
