<svg width="71" height="70" viewBox="0 0 71 70" fill="none" xmlns="http://www.w3.org/2000/svg">
<path d="M27.4795 5.83325C28.0597 5.83325 28.616 6.06372 29.0263 6.47396C29.4365 6.88419 29.667 7.44059 29.667 8.02075V15.3124C29.667 15.8926 29.4365 16.449 29.0263 16.8592C28.616 17.2695 28.0597 17.4999 27.4795 17.4999C26.8993 17.4999 26.3429 17.2695 25.9327 16.8592C25.5225 16.449 25.292 15.8926 25.292 15.3124V8.02075C25.292 7.44059 25.5225 6.88419 25.9327 6.47396C26.3429 6.06372 26.8993 5.83325 27.4795 5.83325ZM13.5378 11.5791C13.948 11.1694 14.504 10.9393 15.0837 10.9393C15.6633 10.9393 16.2193 11.1694 16.6295 11.5791L21.7337 16.6833C21.9486 16.8835 22.121 17.125 22.2405 17.3933C22.3601 17.6617 22.4244 17.9513 22.4295 18.2451C22.4347 18.5388 22.3807 18.8305 22.2707 19.1029C22.1607 19.3753 21.9969 19.6227 21.7892 19.8304C21.5815 20.0382 21.334 20.2019 21.0617 20.3119C20.7893 20.422 20.4975 20.476 20.2038 20.4708C19.9101 20.4656 19.6204 20.4013 19.3521 20.2818C19.0838 20.1622 18.8423 19.9898 18.642 19.7749L13.5378 14.6708C13.1282 14.2606 12.8981 13.7046 12.8981 13.1249C12.8981 12.5452 13.1282 11.9892 13.5378 11.5791ZM41.4212 11.5791C41.8308 11.9892 42.0609 12.5452 42.0609 13.1249C42.0609 13.7046 41.8308 14.2606 41.4212 14.6708L36.317 19.7749C36.1167 19.9898 35.8752 20.1622 35.6069 20.2818C35.3386 20.4013 35.0489 20.4656 34.7552 20.4708C34.4615 20.476 34.1697 20.422 33.8973 20.3119C33.6249 20.2019 33.3775 20.0382 33.1698 19.8304C32.9621 19.6227 32.7983 19.3753 32.6883 19.1029C32.5783 18.8305 32.5242 18.5388 32.5294 18.2451C32.5346 17.9513 32.5989 17.6617 32.7185 17.3933C32.838 17.125 33.0104 16.8835 33.2253 16.6833L38.3295 11.5791C38.7396 11.1694 39.2956 10.9393 39.8753 10.9393C40.455 10.9393 41.011 11.1694 41.4212 11.5791ZM7.79199 25.5208C7.79199 24.9406 8.02246 24.3842 8.4327 23.974C8.84293 23.5637 9.39933 23.3333 9.97949 23.3333H17.2712C17.8513 23.3333 18.4077 23.5637 18.818 23.974C19.2282 24.3842 19.4587 24.9406 19.4587 25.5208C19.4587 26.1009 19.2282 26.6573 18.818 27.0675C18.4077 27.4778 17.8513 27.7083 17.2712 27.7083H9.97949C9.39933 27.7083 8.84293 27.4778 8.4327 27.0675C8.02246 26.6573 7.79199 26.1009 7.79199 25.5208ZM25.292 27.6703C25.292 24.3833 29.1478 22.6099 31.6416 24.7508L56.3195 45.9024C58.9737 48.1774 57.4628 52.5262 53.9716 52.6691L42.7716 53.1153C41.567 53.162 40.4353 53.6987 39.6303 54.5941L32.0062 63.1166C29.6524 65.7503 25.292 64.082 25.292 60.5499V27.6703Z" fill="white"/>
</svg>
