<svg width="53" height="53" viewBox="0 0 53 53" fill="none" xmlns="http://www.w3.org/2000/svg">
<path opacity="0.1" fill-rule="evenodd" clip-rule="evenodd" d="M26.7509 51.5019C40.4205 51.5019 51.5019 40.4205 51.5019 26.7509C51.5019 13.0814 40.4205 2 26.7509 2C13.0814 2 2 13.0814 2 26.7509C2 40.4205 13.0814 51.5019 26.7509 51.5019Z" stroke="white" stroke-width="2.12151"/>
<path d="M21.0704 21.7542C22.2293 21.7542 23.1687 20.8147 23.1687 19.6559C23.1687 18.4971 22.2293 17.5577 21.0704 17.5577C19.9116 17.5577 18.9722 18.4971 18.9722 19.6559C18.9722 20.8147 19.9116 21.7542 21.0704 21.7542Z" fill="white"/>
<path d="M22.8189 23.1557H19.3218C19.1288 23.1557 18.9721 23.3124 18.9721 23.5054V33.9966C18.9721 34.1897 19.1288 34.3463 19.3218 34.3463H22.8189C23.0119 34.3463 23.1686 34.1897 23.1686 33.9966V23.5054C23.1686 23.3124 23.0119 23.1557 22.8189 23.1557Z" fill="white"/>
<path d="M33.24 22.5735C31.7454 22.0616 29.8758 22.5113 28.7547 23.3177C28.7162 23.1673 28.5791 23.0554 28.4161 23.0554H24.9191C24.726 23.0554 24.5694 23.2121 24.5694 23.4051V33.8963C24.5694 34.0894 24.726 34.2461 24.9191 34.2461H28.4161C28.6092 34.2461 28.7659 34.0894 28.7659 33.8963V26.3567C29.331 25.8699 30.0591 25.7146 30.655 25.9678C31.2327 26.2119 31.5635 26.8078 31.5635 27.6016V33.8963C31.5635 34.0894 31.7202 34.2461 31.9132 34.2461H35.4103C35.6033 34.2461 35.76 34.0894 35.76 33.8963V26.8973C35.7201 24.0234 34.3682 22.9596 33.24 22.5735Z" fill="white"/>
</svg>
