<svg width="42" height="42" viewBox="0 0 42 42" fill="none" xmlns="http://www.w3.org/2000/svg">
<g clip-path="url(#clip0_5359_3078)">
<path d="M18.375 26.25H2.625C1.17535 26.25 0 25.0746 0 23.625V2.625C0 1.17535 1.17535 0 2.625 0H32.3751C33.8248 0 35.0001 1.17535 35.0001 2.625V14.8749H33.2499V2.625C33.2499 2.14178 32.8583 1.74989 32.3751 1.74989H2.625C2.14178 1.74989 1.74989 2.14178 1.74989 2.625V23.625C1.74989 24.1082 2.14178 24.5001 2.625 24.5001H18.375V26.25Z" fill="white"/>
<path d="M11.375 21C7.02574 21 3.5 17.4743 3.5 13.125C3.5 8.77574 7.02574 5.25 11.375 5.25C15.7243 5.25 19.25 8.77574 19.25 13.125C19.2542 15.2149 18.4258 17.2205 16.948 18.698C15.4702 20.1758 13.4649 21.0042 11.375 21ZM11.375 6.99989C7.99217 6.99989 5.24989 9.74217 5.24989 13.125C5.24989 16.5078 7.99217 19.2501 11.375 19.2501C14.7575 19.2501 17.4998 16.5078 17.4998 13.125C17.4959 9.74377 14.7559 7.00374 11.375 6.99989Z" fill="white"/>
<path d="M18.375 14H11.3751C10.8919 14 10.5 13.6081 10.5 13.1249V6.125H12.2499V12.2498H18.375V14Z" fill="white"/>
<path d="M5.5061 17.7563L10.7561 12.5066L11.9933 13.7441L6.74362 18.9938L5.5061 17.7563Z" fill="white"/>
<path d="M34.1249 28C34.0477 28 33.9711 27.9897 33.8964 27.9696L32.1465 27.4969C32.0754 27.4764 32.0071 27.4472 31.9434 27.4094C31.2714 27.03 30.7155 26.4744 30.3361 25.8021C29.9544 25.1398 29.7526 24.3893 29.75 23.6251V21.8752C29.75 21.392 30.1416 21.0001 30.6248 21.0001C30.8635 21.0235 31.0997 20.9389 31.2692 20.7694C31.4387 20.5999 31.5233 20.3637 31.4999 20.125C31.5021 19.6655 31.8597 19.2858 32.3183 19.256C32.7771 19.2265 33.1806 19.5565 33.2421 20.0122C33.3094 20.125 33.9551 21.0001 37.625 21.0001C38.1082 21.0001 38.4998 21.392 38.4998 21.8752V23.6251C38.495 26.0393 36.539 27.9952 34.1249 28ZM32.7198 25.839L34.2326 26.2501C35.638 26.1876 36.746 25.0318 36.7499 23.6251V22.7327C35.3397 22.7603 33.9432 22.4494 32.6775 21.8262C32.3641 22.1889 31.9565 22.4581 31.4999 22.6039V23.6251C31.4999 24.0862 31.6226 24.5393 31.8553 24.9376C32.0607 25.3071 32.3583 25.6172 32.7188 25.838L32.7198 25.839Z" fill="white"/>
<path d="M39.3751 22.7498H37.6252V20.9999H38.5V20.1248C38.5 17.7087 36.5415 15.7499 34.1251 15.7499C31.7087 15.7499 29.7502 17.7087 29.7502 20.1248V20.9999H30.625V22.7498H28.8751C28.3919 22.7498 28 22.3582 28 21.875V20.1248C28 16.7423 30.7423 14 34.1251 14C37.5079 14 40.2502 16.7423 40.2502 20.1248V21.875C40.2502 22.3582 39.8583 22.7498 39.3751 22.7498Z" fill="white"/>
<path d="M34.125 30.6249C32.6754 30.6249 31.5 29.4499 31.5 27.9999V26.25H33.2499V27.9999C33.2499 28.1521 33.2903 28.3014 33.3665 28.4331C33.5056 28.6613 33.7398 28.8151 34.0048 28.8519C34.2695 28.8885 34.5371 28.8045 34.7332 28.6231C34.9049 28.4616 35.0017 28.2357 35.0001 27.9999V26.25H36.75V27.9999C36.7503 28.4626 36.6276 28.9173 36.3946 29.3169C35.9194 30.1202 35.0584 30.6162 34.125 30.6249Z" fill="white"/>
<path d="M41.1249 42H28.875C28.3918 42 27.9999 41.6081 27.9999 41.1249V34.125H25.3749C25.1429 34.125 24.9205 34.0327 24.7564 33.8686L19.5064 28.6186C19.1648 28.277 19.1648 27.723 19.5064 27.3814L22.1314 24.7564C22.473 24.4148 23.027 24.4148 23.3686 24.7564L26.6121 27.9999H33.2499V29.7501H26.25C26.018 29.7501 25.7953 29.6578 25.6312 29.4937L22.7499 26.6121L21.3621 27.9999L25.7373 32.3751H28.875C29.3582 32.3751 29.7501 32.7667 29.7501 33.2499V40.2501H40.2501V30.6249C40.2501 30.1417 39.8582 29.7501 39.375 29.7501H35.0001V27.9999H39.375C40.8246 27.9999 42 29.1752 42 30.6249V41.1249C42 41.6081 41.6081 42 41.1249 42Z" fill="white"/>
<path d="M37.625 32.375H39.3749V41.1248H37.625V32.375Z" fill="white"/>
<path d="M19.5063 28.6185L18.1938 27.306C17.1271 26.2396 17.1271 24.5103 18.1938 23.4438C19.2603 22.3771 20.9896 22.3771 22.056 23.4438L23.3685 24.7563L22.1313 25.9935L20.8188 24.681C20.4353 24.2981 19.8143 24.2981 19.431 24.681C19.0494 25.0649 19.0494 25.685 19.431 26.0688L20.7435 27.3813L19.5063 28.6185Z" fill="white"/>
<path d="M22.75 24.5H31.5001V26.2499H22.75V24.5Z" fill="white"/>
<path d="M22.75 5.25H31.5001V6.99989H22.75V5.25Z" fill="white"/>
<path d="M22.75 8.75H31.5001V10.4999H22.75V8.75Z" fill="white"/>
<path d="M22.75 12.25H28.8751V14.0002H22.75V12.25Z" fill="white"/>
</g>
<defs>
<clipPath id="clip0_5359_3078">
<rect width="42" height="42" fill="white"/>
</clipPath>
</defs>
</svg>
