<svg width="52" height="53" viewBox="0 0 52 53" fill="none" xmlns="http://www.w3.org/2000/svg">
<path opacity="0.1" fill-rule="evenodd" clip-rule="evenodd" d="M26.1845 51.5019C39.8541 51.5019 50.9355 40.4205 50.9355 26.7509C50.9355 13.0814 39.8541 2 26.1845 2C12.515 2 1.43359 13.0814 1.43359 26.7509C1.43359 40.4205 12.515 51.5019 26.1845 51.5019Z" stroke="white" stroke-width="2.12151"/>
<path d="M34.2749 22.175C34.16 22.0452 33.9749 22.0126 33.823 22.0926C33.7285 22.1424 33.5509 22.2077 33.34 22.2722C33.6061 21.9084 33.8199 21.5011 33.9144 21.135C33.9552 20.9772 33.8955 20.8108 33.7655 20.7168C33.6355 20.6235 33.4625 20.6235 33.3325 20.7168C33.1277 20.8637 32.1392 21.3052 31.5142 21.4482C30.1017 20.1757 28.458 20.0436 26.7492 21.0697C25.3602 21.9037 25.0579 23.5999 25.1168 24.6337C21.9374 24.3189 19.9612 22.5917 18.8487 21.1622C18.7709 21.0619 18.6454 21.009 18.5276 21.0168C18.4036 21.0261 18.2918 21.0969 18.2283 21.2065C17.7023 22.1198 17.5564 23.1296 17.8081 24.1269C17.9456 24.6711 18.186 25.1507 18.4648 25.5393C18.3311 25.4717 18.2018 25.387 18.0802 25.2859C17.9683 25.1911 17.8119 25.1732 17.6796 25.2362C17.5481 25.3007 17.4642 25.4375 17.4642 25.5875C17.4642 27.3 18.5056 28.4427 19.4783 29.0397C19.3211 29.0202 19.1571 28.9845 18.9916 28.9324C18.8495 28.8881 18.6953 28.9324 18.5971 29.0474C18.4988 29.1617 18.4754 29.3249 18.5366 29.4641C19.083 30.707 20.1184 31.5621 21.3994 31.8723C20.2809 32.5478 18.7837 32.8789 17.4128 32.7164C17.2352 32.6908 17.066 32.8066 17.01 32.9823C16.9541 33.158 17.0274 33.3507 17.1838 33.4409C19.2636 34.6419 21.1439 35.071 22.7688 35.071C25.1335 35.071 26.9586 34.1631 28.0695 33.4036C31.0645 31.3592 32.9312 27.6887 32.6712 24.4044C33.1511 24.0399 33.8691 23.3667 34.3142 22.643C34.4064 22.4969 34.3898 22.3041 34.2749 22.175Z" fill="white"/>
</svg>
